<?xml version="1.0" encoding="utf-8"?>
<!-- Generator: Adobe Illustrator 16.0.0, SVG Export Plug-In . SVG Version: 6.00 Build 0)  -->
<!DOCTYPE svg PUBLIC "-//W3C//DTD SVG 1.1//EN" "http://www.w3.org/Graphics/SVG/1.1/DTD/svg11.dtd">
<svg version="1.1" id="Layer_1" xmlns="http://www.w3.org/2000/svg" xmlns:xlink="http://www.w3.org/1999/xlink" x="0px" y="0px"
	 width="1000px" height="600px" viewBox="0 0 1000 600" enable-background="new 0 0 1000 600" xml:space="preserve">
<path fill-rule="evenodd" clip-rule="evenodd" fill="#FFFFFF" d="M320.408,538.538c0.861-0.843,0.885-1.974,0.997-3.051
	c0.366-3.521,0.063-7.083,0.705-10.595c0.482-2.636,1.139-5.186,2.194-7.674c1.849-4.361,2.925-8.979,4.003-13.578
	c2.063-8.801,3.784-17.684,6.673-26.275c2.213-6.583,4.511-13.13,7.742-19.3c0.57-1.09,1.249-2.128,1.949-3.142
	c0.463-0.671,1.004-1.292,1.9-1.475c0.611-0.124,0.916-0.679,1.222-1.16c0.666-1.045,1.209-2.171,1.512-3.362
	c1.491-5.863,4.505-11.002,7.611-16.092c4.982-8.165,10.637-15.852,16.667-23.269c0.983-1.21,1.903-2.474,2.673-3.837
	c1.1-2.086,2.463-4.014,3.634-6.061c1.389-2.427,2.793-4.838,4.042-7.343c2.125-4.258,4.307-8.489,6.076-12.911
	c0.617-1.541,1.145-3.128,1.425-4.778c0.172-0.881,0.159-1.762,0.003-2.644c-0.614-3.205-2.413-5.903-3.786-8.781
	c-0.548-1.15-1.228-2.238-1.86-3.348c-0.393-0.689-0.343-1.237,0.288-1.81c5.028-4.561,9.546-9.647,14.55-14.226
	c3.573-3.269,6.746-6.897,10.043-10.416c3.764-4.019,7.262-8.261,10.513-12.708c1.752-2.396,2.964-5.128,4.701-7.525
	c2.597-3.586,5.473-6.938,8.508-10.169c2.859-3.043,5.643-6.159,8.649-9.06c3.328-3.21,6.61-6.476,10.076-9.532
	c3.513-3.098,6.585-6.616,9.818-9.972c2.45-2.544,4.775-5.267,6.63-8.324c0.122-0.201,0.179-0.442,0.266-0.665
	c-0.268-1.235,0.296-2.264,0.866-3.266c1.778-3.125,4.27-5.652,6.939-7.995c2.788-2.446,5.671-4.784,8.568-7.1
	c0.762-0.609,0.869-1.146,0.428-1.996c-1.786-3.438-3.627-6.848-5.309-10.34c-2.05-4.258-3.027-8.785-3.417-13.462
	c-0.116-1.395-0.25-2.784-0.263-4.189c-0.065-6.614,0.71-13.153,1.66-19.679c0.677-4.65,1.583-9.263,2.389-13.892
	c0.127-0.731,0.285-1.456,0.527-2.157c0.035-0.113,0.076-0.225,0.131-0.332c0.054-0.106,0.092-0.22,0.152-0.323
	c-0.146,0.058-0.088,0.236-0.19,0.325c-0.771,2.242-2.09,4.204-3.166,6.287c-1.567,3.035-3.096,6.101-5.101,8.887
	c-1.591,2.211-3.256,4.355-5.509,5.959c-0.777,0.553-1.579,1.075-2.48,1.37c-2.098,0.688-3.747,2.022-5.312,3.507
	c-4.874,4.625-8.973,9.869-12.403,15.632c-1.282,2.155-2.516,4.357-2.789,6.941c-0.098,0.923-0.617,1.705-1.175,2.423
	c-1.227,1.581-2.206,3.391-4.021,4.44c-3.43,3.45-7.492,6.295-10.118,10.514c-1.145,1.839-1.968,3.802-1.989,6.02
	c-0.236,0.404,0.003,0.876-0.184,1.288c-0.086,1.026-0.213,2.052-0.061,3.083c-0.266,0.771,0.025,1.585-0.186,2.36
	c-0.724,6.598-3.868,12.008-8.294,16.764c-2.037,2.188-4.125,4.347-7.094,5.307c-0.411,0.103-0.821,0.12-1.23-0.012
	c-0.797-0.709-1-2.228-0.373-3.467c0.896-1.771,1.815-3.534,2.812-5.249c0.338-0.583,0.46-1.221,0.512-1.797
	c0.077-0.852-0.636-1.005-1.368-0.845c-1.955,0.428-3.268,1.719-4.326,3.305c-1.363,2.042-2.317,4.248-2.468,6.741
	c-0.251,0.396,0.003,0.867-0.188,1.272c-0.023,0.948-0.046,1.896-0.069,2.843c-0.203,0.435,0.001,0.927-0.19,1.363
	c-0.177,0.705-0.332,1.417-0.537,2.113c-0.406,1.38-0.979,2.62-2.127,3.619c-1.496,1.3-1.877,3.177-2.056,5.056
	c-0.108,1.139-0.191,2.264-0.451,3.392c-0.592,2.57-2.725,3.36-4.812,1.055c-1.253-1.384-2.029-3.073-2.685-4.852
	c-0.881-2.388-1.246-4.889-1.918-7.317c-0.142-0.512,0.147-1.062-0.08-1.581c-0.207-0.407,0.048-0.885-0.194-1.287
	c-0.019-0.313-0.038-0.626-0.056-0.939c-0.2-0.517,0.039-1.084-0.184-1.598c-0.021-0.622-0.042-1.243-0.064-1.865
	c-0.134-3.049-0.133-6.098-0.001-9.148c0.02-0.474,0.041-0.948,0.061-1.422c0.229-0.409-0.003-0.883,0.183-1.298
	c0.289-4.376,2.444-7.838,5.384-10.896c3.337-3.47,6.386-7.154,8.405-11.565c1.769-3.866,2.952-7.911,3.896-12.074
	c1.113-4.912,2.304-9.831,4.233-14.527c1.163-2.83,2.222-5.712,3.896-8.28c1.358-2.083,2.824-4.08,4.511-5.956
	c3.128-3.478,7.126-5.735,10.816-8.433c0.786-0.575,1.489-1.289,2.13-2.025c0.561-0.645,0.603-1.33-0.087-2.048
	c-1.142-1.189-2.545-2.074-3.637-3.324c-1.237-1.416-1.803-2.984-1.841-4.871c-0.062-3.028,0.887-5.779,1.85-8.583
	c0.906-2.64,2.175-5.106,3.263-7.656c0.942-2.208,2.235-4.264,3.253-6.444c2.444-5.231,5.474-10.127,8.735-14.858
	c3.134-4.547,6.567-8.886,10.181-13.085c3.457-4.018,7.193-7.76,11.023-11.387c6.354-6.018,13.273-11.324,21.23-15.129
	c3.394-1.623,7.013-2.455,10.693-3.119c7.799-1.409,15.575-2.937,22.91-6.084c2.568-1.102,5.004-2.44,6.663-4.817
	c0.295-0.423,0.59-0.871,0.6-1.425c0.154-0.69,0.198-1.38-0.008-2.068c-0.639-2.396-2.479-3.967-3.965-5.783
	c-1.35-1.649-2.363-3.49-3.256-5.43c-1.03-2.239-1.754-4.56-2.436-6.916c-0.276-0.954-0.31-1.922-0.533-2.869
	c-0.192-0.43,0.02-0.917-0.187-1.345c0.138-1.435-0.421-3.022,0.375-4.286c1.154-1.833,1.831-3.789,2.393-5.848
	c0.605-2.221,1.05-4.459,1.471-6.72c0.589-3.166,1.311-6.306,2.619-9.305c1.271-2.914,2.783-5.665,4.74-8.141
	c4.248-5.375,9.782-8.719,16.501-10.088c0.521-0.106,1.044-0.208,1.565-0.312c0.416-0.205,0.897,0.034,1.311-0.191
	c0.553-0.021,1.105-0.043,1.658-0.065c0.74-0.124,1.48-0.12,2.22-0.002c5.924,0.375,11.482,2.053,16.715,4.798
	c6.523,3.423,9.944,8.979,11.01,16.166c0.639,4.302,0.271,8.649,0.726,12.955c0.194,1.846,0.403,3.689,1.024,5.448
	c0.29,0.819,0.664,1.524,1.691,1.766c1.079,0.254,1.13,1.328,1.212,2.215c0.165,1.783-0.129,3.542-0.538,5.267
	c-1.278,5.375-3.311,10.413-6.75,14.811c-0.94,1.202-1.716,2.517-2.287,3.937c-1.394,3.464-0.658,6.456,2.192,8.882
	c2.719,2.314,5.966,3.627,9.304,4.688c8.998,2.858,18.224,4.423,27.668,4.681c6.791,0.185,13.125,2.174,19.182,5.081
	c7.434,3.567,14.345,8.045,21.239,12.533c14.777,9.618,29.225,19.705,43.042,30.671c3.812,3.025,7.426,6.274,10.912,9.675
	c3.628,3.54,5.397,7.792,5.419,12.819c0.008,1.852,0.013,3.704,0.019,5.556c-0.206,0.438-0.007,0.932-0.192,1.373
	c-0.836,5.039-1.995,10-3.454,14.896c-3.525,11.827-8.051,23.269-13.202,34.472c-3.578,7.781-7.784,15.221-12.136,22.589
	c-1.908,3.232-3.759,6.512-5.191,10.005c-0.59,1.439-0.57,3.013-1.19,4.443c-1.825,4.208-4.443,7.921-7.104,11.613
	c-3.445,4.78-7.601,8.989-11.042,13.769c-1.346,1.87-2.861,3.653-3.442,5.98c-0.138,0.555-0.727,0.787-1.23,0.939
	c-1.039,0.313-2.1,0.554-3.151,0.823c-0.414,0.198-0.892-0.041-1.301,0.188c-0.556,0.021-1.112,0.042-1.668,0.062
	c-0.822,0.131-1.645,0.122-2.468,0.006c-1.827-0.202-3.662-0.087-5.493-0.555c-2.269-0.579-4.024-1.669-5.225-3.682
	c-1.204-2.018-2.246-4.077-2.353-6.496c-0.073-1.646,0.731-2.829,1.903-3.824c0.892-0.757,1.737-1.559,2.353-2.552
	c0.326-0.526,0.776-1.134,0.067-1.738c-0.411-0.257-0.832-0.123-1.252-0.032c-1.538,0.185-2.62,1.212-3.794,2.064
	c-0.497,0.36-0.944,0.796-1.465,1.113c-0.499,0.304-1.059,0.916-1.649,0.449c-0.585-0.461-0.68-1.351-0.592-1.999
	c0.578-4.248,2.134-8.184,4.16-11.928c1.665-3.076,3.458-6.078,5.922-8.618c0.826-0.852,1.763-1.38,2.964-1.384
	c0.418-0.178,0.891,0.045,1.303-0.178c3.033-0.283,5.64-1.678,8.063-3.351c4.709-3.249,8.483-7.426,11.677-12.164
	c2.125-3.154,3.996-6.446,5.561-9.9c2.724-6.016,5.181-12.141,7.013-18.499c0.141-0.487,0.202-0.997,0.3-1.496
	c0.194-0.438,0.003-0.927,0.184-1.368c0.488-5.234,1.968-10.238,3.487-15.239c1.219-4.011,2.417-8.033,3.239-12.145
	c0.126-0.627,0.427-1.295,0.261-1.986c0.146-0.45,0.182-0.899-0.01-1.347c-0.143-0.161-0.284-0.322-0.427-0.483
	c-0.565-0.167-1.131-0.14-1.696,0c-2.202,0.085-4.114,1.12-6.103,1.889c-1.621,0.627-3.227,1.243-5.002,1.302
	c-2.498,0.083-4.674-0.903-6.66-2.188c-4.178-2.705-8.736-4.457-13.495-5.734c-2.572-0.69-5.198-1.176-7.855-1.453
	c-0.504-0.228-1.062,0.017-1.57-0.179c-0.551-0.022-1.102-0.044-1.652-0.066c-0.669-0.256-1.386,0.034-2.059-0.181
	c-0.617-0.021-1.234-0.042-1.852-0.064c-0.603-0.238-1.253,0.014-1.859-0.181c-0.551-0.023-1.102-0.046-1.652-0.069
	c-0.669-0.256-1.386,0.033-2.059-0.18c-0.688-0.182-1.134-0.006-1.409,0.725c-4.256,11.294-8.951,22.419-13.051,33.774
	c-2.448,6.78-4.446,13.693-5.767,20.776c-0.609,3.27-1.257,6.558-1.325,9.911c-0.218,0.417,0.01,0.896-0.187,1.316
	c-0.02,0.305-0.04,0.61-0.06,0.915c-0.217,0.416,0,0.891-0.179,1.312c-0.022,0.384-0.047,0.769-0.07,1.153
	c-0.23,0.503,0.018,1.062-0.18,1.569c-0.021,0.448-0.041,0.896-0.062,1.345c-0.199,0.44-0.02,0.931-0.182,1.376
	c-0.023,0.461-0.048,0.923-0.072,1.385c-0.225,0.509,0.016,1.072-0.18,1.584c-0.022,0.387-0.044,0.774-0.066,1.161
	c-0.238,0.5,0.025,1.059-0.187,1.561c-0.019,0.311-0.037,0.622-0.056,0.932c-0.254,0.49,0.026,1.047-0.192,1.542
	c-0.603,3.73-1.027,7.484-1.729,11.205c-1.218,6.462-3.724,12.315-7.672,17.553c-1.966,2.608-4.074,5.112-5.971,7.769
	c-1.357,1.899-2.223,4.06-2.248,6.466c-0.235,0.405,0.004,0.879-0.186,1.291c-0.357,2.889-0.146,5.776-0.002,8.665
	c0.226,0.858-0.084,1.757,0.189,2.611c0.021,0.696,0.041,1.393,0.062,2.089c0.206,0.688-0.068,1.415,0.181,2.099
	c0.021,0.62,0.041,1.239,0.062,1.859c0.224,0.771-0.074,1.583,0.187,2.351c0.022,0.701,0.044,1.402,0.065,2.104
	c0.206,0.693-0.069,1.429,0.187,2.118c0.021,0.943,0.04,1.886,0.06,2.829c0.126,2.637,0.133,5.273-0.004,7.91
	c-0.021,0.537-0.042,1.073-0.063,1.61c-0.202,0.434-0.001,0.923-0.186,1.358c-0.84,6.112-3.062,11.789-5.487,17.399
	c-2.865,6.626-5.879,13.18-9.318,19.534c-3.428,6.33-6.956,12.604-10.019,19.131c-2.65,5.649-4.887,11.489-7.838,16.997
	c-0.979,1.826-1.952,3.654-3.238,5.3c-0.306,0.392-0.703,0.654-1.01,1.022c-0.448,0.371-1.04-0.045-1.498,0.271
	c-2.06,0.525-3.586,1.939-5.065,3.294c-4.665,4.272-8.878,8.947-11.933,14.548c-1.008,1.85-1.754,3.835-3.017,5.554
	c-3.79,5.155-9.021,8.077-15.056,9.745c-1.229,0.34-2.498,0.537-3.748,0.8c-0.501,0.209-1.059-0.055-1.556,0.187
	c-1.18-0.001-2.359-0.003-3.539-0.004c-0.424-0.206-0.902-0.002-1.331-0.176c-3.716-0.362-7.004-1.685-9.639-4.394
	c-1.744-1.792-2.526-4.169-3.678-6.316c-0.49-0.914-0.845-1.902-1.236-2.867c-0.24-0.594-0.452-0.675-1.046-0.272
	c-4.115,2.783-8.251,5.535-12.411,8.252c-5.687,3.714-11.696,6.802-18.091,9.115c-2.054,0.743-4.192,1.145-6.353,1.429
	c-0.52,0.188-1.086-0.042-1.602,0.182c-0.87-0.274-1.751,0.053-2.651-0.113c-2.225-0.41-3.696-1.779-4.942-3.509
	c-1.515-2.103-3.099-4.177-3.901-6.686c-0.432-1.35-0.349-2.748,0.001-4.111c0.693-2.701,2.001-5.14,3.198-7.642
	c2.059-4.302,4.241-8.529,6.957-12.448c2.181-3.147,4.428-6.288,7.711-8.428c1.93-1.257,4.04-2.232,5.8-3.757
	c0.655-0.566,1.369-1.066,2.029-1.628c3.649-3.107,6.877-6.639,9.986-10.262c4.582-5.339,8.942-10.851,12.604-16.892
	c1.574-2.597,3.146-5.173,4.293-7.996c0.308-0.756,0.365-1.55,0.616-2.305c0.185-1.135,0.174-2.269,0-3.403
	c-0.179-1.477-0.167-2.999-1.027-4.313c-0.419-0.233-0.843-0.153-1.268-0.019c-4.397,1.161-7.966,3.858-11.604,6.377
	c-4.746,3.286-9.159,6.995-13.455,10.86c-4.081,3.672-7.363,8.024-10.925,12.143c-1.65,1.908-3.386,3.759-5.775,4.798
	c-0.658,0.164-1.316,0.159-1.975,0.004c-0.885,0.04-1.401-0.717-2.138-0.991c-2.367-0.881-4.404,0.092-6.388,1.202
	c-5.222,2.924-9.739,6.83-14.428,10.486c-4.413,3.442-8.844,6.863-13.115,10.484c-4.438,3.761-9.011,7.382-12.117,12.443
	c-1.99,3.243-3.041,6.84-4.015,10.468c-1.582,5.887-2.974,11.824-5.179,17.532c-2.047,5.298-4.832,10.146-8.637,14.353
	c-5.302,5.86-9.655,12.381-13.721,19.122c-3.266,5.414-6.382,10.909-9.127,16.604c-3.354,6.96-6.948,13.823-9.188,21.265
	c-0.467,1.55-0.97,3.105-0.922,4.762c-0.262,0.483,0.02,1.036-0.189,1.526c-0.14,1.404-0.123,2.809,0.003,4.213
	c0.185,0.519-0.042,1.082,0.176,1.597c-0.038,1.048,0.031,2.086,0.308,3.103c0.197,0.423-0.026,0.906,0.187,1.326
	c0.022,0.301,0.044,0.601,0.067,0.9c0.195,0.412-0.047,0.888,0.188,1.293c-0.05,0.987,0.056,1.957,0.304,2.913
	c0.197,0.416-0.039,0.894,0.187,1.306c0.022,0.307,0.044,0.614,0.066,0.921c0.066,0.414,0.227,0.835-0.095,1.219
	c-2.754,0.355-5.509,0.705-8.262,1.07c-1.025,0.137-2.046,0.31-3.069,0.466c-0.412,0.202-0.889-0.044-1.296,0.191
	c-0.31,0.02-0.621,0.04-0.931,0.061c-0.501,0.203-1.058-0.057-1.555,0.184c-0.389,0.021-0.778,0.042-1.167,0.063
	c-0.588,0.212-1.226-0.065-1.811,0.183c-0.551,0.023-1.102,0.046-1.652,0.069c-0.61,0.194-1.266-0.059-1.871,0.186
	c-0.696,0.019-1.392,0.037-2.087,0.056c-0.858,0.23-1.757-0.084-2.612,0.192c-0.944,0.02-1.887,0.039-2.831,0.06
	c-1.269,0.227-2.563-0.092-3.83,0.182c-2.104,0.021-4.209,0.043-6.313,0.064c-0.607,0.16-1.226,0.072-1.837,0.072
	c-6.569,0.008-13.138,0.013-19.706-0.012c-0.429-0.002-1.012,0.325-1.297-0.335c2.315-2.579,4.656-5.137,6.94-7.743
	c2.468-2.817,4.744-5.787,6.946-8.818c1.605-2.209,2.846-4.682,4.738-6.681c2.085-2.203,4.611-3.549,7.692-3.712
	c0.576-0.031,1.151-0.049,1.727-0.073c0.427-0.173,0.903,0.031,1.326-0.174C319.106,539.928,319.715,539.157,320.408,538.538z"/>
<path fill-rule="evenodd" clip-rule="evenodd" fill="#FFFFFF" d="M544.056,579.686c-0.992,0-1.984,0-2.978,0
	c-0.865-0.021-1.729-0.041-2.595-0.061c-0.516-0.226-1.084,0.01-1.604-0.185c-15.307-0.826-32.892-16.937-33.683-34.184
	c-0.188-0.438,0.013-0.931-0.19-1.366c-0.023-0.452-0.046-0.904-0.068-1.355c-0.194-0.608,0.058-1.26-0.183-1.862
	c0.001-1.483,0.002-2.966,0.003-4.449c0.254-0.681-0.032-1.409,0.187-2.094c0.206-2.757,0.762-5.433,1.585-8.082
	c1.207-3.886,3.039-7.417,5.458-10.664c4.313-5.792,10.033-9.813,16.457-12.887c3.996-1.912,8.272-2.96,12.661-3.538
	c0.517-0.199,1.084,0.039,1.598-0.184c1.729-0.002,3.457-0.005,5.186-0.007c0.439,0.201,0.93,0.021,1.374,0.181
	c7.579,0.956,14.488,3.619,20.484,8.377c7.837,6.222,12.926,14.205,14.893,24.082c0.31,1.558,0.524,3.134,0.782,4.701
	c0.243,0.941-0.09,1.922,0.196,2.86c-0.144,0.318-0.146,0.637,0.001,0.955c-0.291,1.021,0.048,2.082-0.195,3.105
	c-0.021,0.38-0.044,0.761-0.065,1.141c-0.209,0.424,0.012,0.908-0.188,1.334c-0.675,3.338-1.41,6.646-2.729,9.819
	c-3.613,8.692-9.575,15.198-17.863,19.616c-4.571,2.437-9.471,3.792-14.573,4.499c-0.438,0.18-0.925-0.018-1.359,0.185
	C545.783,579.645,544.92,579.665,544.056,579.686z"/>
</svg>
